<?xml version="1.0" encoding="UTF-8" standalone="no"?><svg xmlns="http://www.w3.org/2000/svg" xmlns:xlink="http://www.w3.org/1999/xlink" contentScriptType="application/ecmascript" contentStyleType="text/css" height="169px" preserveAspectRatio="none" style="width:1945px;height:169px;" version="1.1" viewBox="0 0 1945 169" width="1945px" zoomAndPan="magnify"><defs><filter height="300%" id="fpnzq6ktysiw5" width="300%" x="-1" y="-1"><feGaussianBlur result="blurOut" stdDeviation="2.0"/><feColorMatrix in="blurOut" result="blurOut2" type="matrix" values="0 0 0 0 0 0 0 0 0 0 0 0 0 0 0 0 0 0 .4 0"/><feOffset dx="4.0" dy="4.0" in="blurOut2" result="blurOut3"/><feBlend in="SourceGraphic" in2="blurOut3" mode="normal"/></filter></defs><g><!--cluster installer hosts--><polygon fill="#FFFFFF" filter="url(#fpnzq6ktysiw5)" points="22,67,128,67,135,90.6094,1923,90.6094,1923,157,22,157,22,67" style="stroke: #000000; stroke-width: 1.5;"/><line style="stroke: #000000; stroke-width: 1.5;" x1="22" x2="135" y1="90.6094" y2="90.6094"/><text fill="#000000" font-family="sans-serif" font-size="14" font-weight="bold" lengthAdjust="spacingAndGlyphs" textLength="100" x="26" y="83.5332">installer hosts</text><!--entity Elastic.InstallerHosts--><rect fill="#FEFECE" filter="url(#fpnzq6ktysiw5)" height="37.6094" style="stroke: #A80036; stroke-width: 1.5;" width="149" x="38.5" y="103"/><rect fill="#FEFECE" height="5" style="stroke: #A80036; stroke-width: 1.5;" width="10" x="33.5" y="108"/><rect fill="#FEFECE" height="5" style="stroke: #A80036; stroke-width: 1.5;" width="10" x="33.5" y="130.6094"/><text fill="#000000" font-family="sans-serif" font-size="14" lengthAdjust="spacingAndGlyphs" textLength="129" x="48.5" y="127.5332">Elastic.InstallerHosts</text><!--entity Elastic.InstallerHosts.Elasticsearch--><rect fill="#FEFECE" filter="url(#fpnzq6ktysiw5)" height="37.6094" style="stroke: #A80036; stroke-width: 1.5;" width="237" x="1468.5" y="103"/><rect fill="#FEFECE" height="5" style="stroke: #A80036; stroke-width: 1.5;" width="10" x="1463.5" y="108"/><rect fill="#FEFECE" height="5" style="stroke: #A80036; stroke-width: 1.5;" width="10" x="1463.5" y="130.6094"/><text fill="#000000" font-family="sans-serif" font-size="14" lengthAdjust="spacingAndGlyphs" textLength="217" x="1478.5" y="127.5332">Elastic.InstallerHosts.Elasticsearch</text><path d="M1741,109 L1741,118 L1705.96,122 L1741,126 L1741,135.3516 A0,0 0 0 0 1741,135.3516 L1907,135.3516 A0,0 0 0 0 1907,135.3516 L1907,119 L1897,109 L1741,109 A0,0 0 0 0 1741,109 " fill="#FBFB77" filter="url(#fpnzq6ktysiw5)" style="stroke: #A80036; stroke-width: 1.0;"/><path d="M1897,109 L1897,119 L1907,119 L1897,109 " fill="#FBFB77" style="stroke: #A80036; stroke-width: 1.0;"/><text fill="#000000" font-family="sans-serif" font-size="13" lengthAdjust="spacingAndGlyphs" textLength="145" x="1747" y="127.4951">complete implementation</text><!--entity Elastic.InstallerHosts.Kibana--><rect fill="#FEFECE" filter="url(#fpnzq6ktysiw5)" height="37.6094" style="stroke: #A80036; stroke-width: 1.5;" width="197" x="1052.5" y="103"/><rect fill="#FEFECE" height="5" style="stroke: #A80036; stroke-width: 1.5;" width="10" x="1047.5" y="108"/><rect fill="#FEFECE" height="5" style="stroke: #A80036; stroke-width: 1.5;" width="10" x="1047.5" y="130.6094"/><text fill="#000000" font-family="sans-serif" font-size="14" lengthAdjust="spacingAndGlyphs" textLength="177" x="1062.5" y="127.5332">Elastic.InstallerHosts.Kibana</text><path d="M1285,109 L1285,118 L1249.72,122 L1285,126 L1285,135.3516 A0,0 0 0 0 1285,135.3516 L1433,135.3516 A0,0 0 0 0 1433,135.3516 L1433,119 L1423,109 L1285,109 A0,0 0 0 0 1285,109 " fill="#FBFB77" filter="url(#fpnzq6ktysiw5)" style="stroke: #A80036; stroke-width: 1.0;"/><path d="M1423,109 L1423,119 L1433,119 L1423,109 " fill="#FBFB77" style="stroke: #A80036; stroke-width: 1.0;"/><text fill="#000000" font-family="sans-serif" font-size="13" lengthAdjust="spacingAndGlyphs" textLength="127" x="1291" y="127.4951">partial implementation</text><!--entity Elastic.InstallerHosts.Beats--><rect fill="#FEFECE" filter="url(#fpnzq6ktysiw5)" height="37.6094" style="stroke: #A80036; stroke-width: 1.5;" width="189" x="648.5" y="103"/><rect fill="#FEFECE" height="5" style="stroke: #A80036; stroke-width: 1.5;" width="10" x="643.5" y="108"/><rect fill="#FEFECE" height="5" style="stroke: #A80036; stroke-width: 1.5;" width="10" x="643.5" y="130.6094"/><text fill="#000000" font-family="sans-serif" font-size="14" lengthAdjust="spacingAndGlyphs" textLength="169" x="658.5" y="127.5332">Elastic.InstallerHosts.Beats</text><path d="M872.5,109 L872.5,118 L837.688,122 L872.5,126 L872.5,135.3516 A0,0 0 0 0 872.5,135.3516 L1017.5,135.3516 A0,0 0 0 0 1017.5,135.3516 L1017.5,119 L1007.5,109 L872.5,109 A0,0 0 0 0 872.5,109 " fill="#FBFB77" filter="url(#fpnzq6ktysiw5)" style="stroke: #A80036; stroke-width: 1.0;"/><path d="M1007.5,109 L1007.5,119 L1017.5,119 L1007.5,109 " fill="#FBFB77" style="stroke: #A80036; stroke-width: 1.0;"/><text fill="#000000" font-family="sans-serif" font-size="13" lengthAdjust="spacingAndGlyphs" textLength="124" x="878.5" y="127.4951">future implementation</text><!--entity Elastic.InstallerHosts.Logstash--><rect fill="#FEFECE" filter="url(#fpnzq6ktysiw5)" height="37.6094" style="stroke: #A80036; stroke-width: 1.5;" width="211" x="222.5" y="103"/><rect fill="#FEFECE" height="5" style="stroke: #A80036; stroke-width: 1.5;" width="10" x="217.5" y="108"/><rect fill="#FEFECE" height="5" style="stroke: #A80036; stroke-width: 1.5;" width="10" x="217.5" y="130.6094"/><text fill="#000000" font-family="sans-serif" font-size="14" lengthAdjust="spacingAndGlyphs" textLength="191" x="232.5" y="127.5332">Elastic.InstallerHosts.Logstash</text><path d="M468.5,109 L468.5,118 L433.668,122 L468.5,126 L468.5,135.3516 A0,0 0 0 0 468.5,135.3516 L613.5,135.3516 A0,0 0 0 0 613.5,135.3516 L613.5,119 L603.5,109 L468.5,109 A0,0 0 0 0 468.5,109 " fill="#FBFB77" filter="url(#fpnzq6ktysiw5)" style="stroke: #A80036; stroke-width: 1.0;"/><path d="M603.5,109 L603.5,119 L613.5,119 L603.5,109 " fill="#FBFB77" style="stroke: #A80036; stroke-width: 1.0;"/><text fill="#000000" font-family="sans-serif" font-size="13" lengthAdjust="spacingAndGlyphs" textLength="124" x="474.5" y="127.4951">future implementation</text><!--link Elastic.InstallerHosts to Elastic.InstallerHosts.Elasticsearch--><path d="M127.958,102.9142 C147.058,80.2611 182.466,43.707 222.5,29 C285.652,5.801 1368.7,10.902 1433.5,29 C1482.56,42.701 1531.55,76.8221 1560.56,99.7 " fill="none" id="Elastic.InstallerHosts-Elastic.InstallerHosts.Elasticsearch" style="stroke: #A80036; stroke-width: 1.0;"/><polygon fill="#A80036" points="1564.69,102.9901,1560.1402,94.2551,1560.7783,99.8759,1555.1575,100.5139,1564.69,102.9901" style="stroke: #A80036; stroke-width: 1.0;"/><!--link Elastic.InstallerHosts to Elastic.InstallerHosts.Kibana--><path d="M127.958,102.9142 C147.058,80.2611 182.466,43.707 222.5,29 C305.416,-1.459 933.223,2.539 1017.5,29 C1061.24,42.734 1103.19,76.4399 1128.02,99.2697 " fill="none" id="Elastic.InstallerHosts-Elastic.InstallerHosts.Kibana" style="stroke: #A80036; stroke-width: 1.0;"/><polygon fill="#A80036" points="1131.86,102.8356,1127.9852,93.781,1128.1955,99.4339,1122.5425,99.6442,1131.86,102.8356" style="stroke: #A80036; stroke-width: 1.0;"/><!--link Elastic.InstallerHosts to Elastic.InstallerHosts.Beats--><path d="M127.958,102.9142 C147.058,80.2611 182.466,43.707 222.5,29 C304.06,-0.961 530.79,2.378 613.5,29 C656.268,42.766 696.863,76.4628 720.847,99.2823 " fill="none" id="Elastic.InstallerHosts-Elastic.InstallerHosts.Beats" style="stroke: #A80036; stroke-width: 1.0;"/><polygon fill="#A80036" points="724.552,102.8466,720.8386,93.7246,720.9485,99.3804,715.2927,99.4902,724.552,102.8466" style="stroke: #A80036; stroke-width: 1.0;"/><!--link Elastic.InstallerHosts to Elastic.InstallerHosts.Logstash--><path d="M187.746,122 C197.543,122 207.341,122 217.138,122 " fill="none" id="Elastic.InstallerHosts-Elastic.InstallerHosts.Logstash" style="stroke: #A80036; stroke-width: 1.0;"/><polygon fill="#A80036" points="222.262,122,213.262,118,217.262,122,213.262,126,222.262,122" style="stroke: #A80036; stroke-width: 1.0;"/><!--
@startuml
package "installer hosts" {
	[Elastic.InstallerHosts] -> [Elastic.InstallerHosts.Elasticsearch]
	note right
		complete implementation
	end note

	[Elastic.InstallerHosts] -> [Elastic.InstallerHosts.Kibana]
	note right
		partial implementation
	end note

	[Elastic.InstallerHosts] -> [Elastic.InstallerHosts.Beats]
	note right
		future implementation
	end note

	[Elastic.InstallerHosts] -> [Elastic.InstallerHosts.Logstash]
	note right
		future implementation
	end note
}
@enduml

PlantUML version 1.2019.03(Sun Mar 10 22:04:44 AEDT 2019)
(GPL source distribution)
Java Runtime: Java(TM) SE Runtime Environment
JVM: Java HotSpot(TM) 64-Bit Server VM
Java Version: 1.8.0_201-b09
Operating System: Windows 10
OS Version: 10.0
Default Encoding: Cp1252
Language: en
Country: AU
--></g></svg>