<?xml version="1.0" encoding="UTF-8" standalone="no"?><svg xmlns="http://www.w3.org/2000/svg" xmlns:xlink="http://www.w3.org/1999/xlink" contentScriptType="application/ecmascript" contentStyleType="text/css" height="169px" preserveAspectRatio="none" style="width:1955px;height:169px;" version="1.1" viewBox="0 0 1955 169" width="1955px" zoomAndPan="magnify"><defs><filter height="300%" id="fbqy4dmh0obpg" width="300%" x="-1" y="-1"><feGaussianBlur result="blurOut" stdDeviation="2.0"/><feColorMatrix in="blurOut" result="blurOut2" type="matrix" values="0 0 0 0 0 0 0 0 0 0 0 0 0 0 0 0 0 0 .4 0"/><feOffset dx="4.0" dy="4.0" in="blurOut2" result="blurOut3"/><feBlend in="SourceGraphic" in2="blurOut3" mode="normal"/></filter></defs><g><!--cluster process hosts--><polygon fill="#FFFFFF" filter="url(#fbqy4dmh0obpg)" points="22,67,128,67,135,90.6094,1933,90.6094,1933,157,22,157,22,67" style="stroke: #000000; stroke-width: 1.5;"/><line style="stroke: #000000; stroke-width: 1.5;" x1="22" x2="135" y1="90.6094" y2="90.6094"/><text fill="#000000" font-family="sans-serif" font-size="14" font-weight="bold" lengthAdjust="spacingAndGlyphs" textLength="100" x="26" y="83.5332">process hosts</text><!--entity Elastic.ProcessHosts--><rect fill="#FEFECE" filter="url(#fbqy4dmh0obpg)" height="37.6094" style="stroke: #A80036; stroke-width: 1.5;" width="151" x="38.5" y="103"/><rect fill="#FEFECE" height="5" style="stroke: #A80036; stroke-width: 1.5;" width="10" x="33.5" y="108"/><rect fill="#FEFECE" height="5" style="stroke: #A80036; stroke-width: 1.5;" width="10" x="33.5" y="130.6094"/><text fill="#000000" font-family="sans-serif" font-size="14" lengthAdjust="spacingAndGlyphs" textLength="131" x="48.5" y="127.5332">Elastic.ProcessHosts</text><!--entity Elastic.ProcessHosts.Elasticsearch--><rect fill="#FEFECE" filter="url(#fbqy4dmh0obpg)" height="37.6094" style="stroke: #A80036; stroke-width: 1.5;" width="239" x="1476.5" y="103"/><rect fill="#FEFECE" height="5" style="stroke: #A80036; stroke-width: 1.5;" width="10" x="1471.5" y="108"/><rect fill="#FEFECE" height="5" style="stroke: #A80036; stroke-width: 1.5;" width="10" x="1471.5" y="130.6094"/><text fill="#000000" font-family="sans-serif" font-size="14" lengthAdjust="spacingAndGlyphs" textLength="219" x="1486.5" y="127.5332">Elastic.ProcessHosts.Elasticsearch</text><path d="M1751,109 L1751,118 L1715.93,122 L1751,126 L1751,135.3516 A0,0 0 0 0 1751,135.3516 L1917,135.3516 A0,0 0 0 0 1917,135.3516 L1917,119 L1907,109 L1751,109 A0,0 0 0 0 1751,109 " fill="#FBFB77" filter="url(#fbqy4dmh0obpg)" style="stroke: #A80036; stroke-width: 1.0;"/><path d="M1907,109 L1907,119 L1917,119 L1907,109 " fill="#FBFB77" style="stroke: #A80036; stroke-width: 1.0;"/><text fill="#000000" font-family="sans-serif" font-size="13" lengthAdjust="spacingAndGlyphs" textLength="145" x="1757" y="127.4951">complete implementation</text><!--entity Elastic.ProcessHosts.Kibana--><rect fill="#FEFECE" filter="url(#fbqy4dmh0obpg)" height="37.6094" style="stroke: #A80036; stroke-width: 1.5;" width="199" x="1058.5" y="103"/><rect fill="#FEFECE" height="5" style="stroke: #A80036; stroke-width: 1.5;" width="10" x="1053.5" y="108"/><rect fill="#FEFECE" height="5" style="stroke: #A80036; stroke-width: 1.5;" width="10" x="1053.5" y="130.6094"/><text fill="#000000" font-family="sans-serif" font-size="14" lengthAdjust="spacingAndGlyphs" textLength="179" x="1068.5" y="127.5332">Elastic.ProcessHosts.Kibana</text><path d="M1293,109 L1293,118 L1257.6,122 L1293,126 L1293,135.3516 A0,0 0 0 0 1293,135.3516 L1441,135.3516 A0,0 0 0 0 1441,135.3516 L1441,119 L1431,109 L1293,109 A0,0 0 0 0 1293,109 " fill="#FBFB77" filter="url(#fbqy4dmh0obpg)" style="stroke: #A80036; stroke-width: 1.0;"/><path d="M1431,109 L1431,119 L1441,119 L1431,109 " fill="#FBFB77" style="stroke: #A80036; stroke-width: 1.0;"/><text fill="#000000" font-family="sans-serif" font-size="13" lengthAdjust="spacingAndGlyphs" textLength="127" x="1299" y="127.4951">partial implementation</text><!--entity Elastic.ProcessHosts.Beats--><rect fill="#FEFECE" filter="url(#fbqy4dmh0obpg)" height="37.6094" style="stroke: #A80036; stroke-width: 1.5;" width="191" x="652.5" y="103"/><rect fill="#FEFECE" height="5" style="stroke: #A80036; stroke-width: 1.5;" width="10" x="647.5" y="108"/><rect fill="#FEFECE" height="5" style="stroke: #A80036; stroke-width: 1.5;" width="10" x="647.5" y="130.6094"/><text fill="#000000" font-family="sans-serif" font-size="14" lengthAdjust="spacingAndGlyphs" textLength="171" x="662.5" y="127.5332">Elastic.ProcessHosts.Beats</text><path d="M878.5,109 L878.5,118 L843.553,122 L878.5,126 L878.5,135.3516 A0,0 0 0 0 878.5,135.3516 L1023.5,135.3516 A0,0 0 0 0 1023.5,135.3516 L1023.5,119 L1013.5,109 L878.5,109 A0,0 0 0 0 878.5,109 " fill="#FBFB77" filter="url(#fbqy4dmh0obpg)" style="stroke: #A80036; stroke-width: 1.0;"/><path d="M1013.5,109 L1013.5,119 L1023.5,119 L1013.5,109 " fill="#FBFB77" style="stroke: #A80036; stroke-width: 1.0;"/><text fill="#000000" font-family="sans-serif" font-size="13" lengthAdjust="spacingAndGlyphs" textLength="124" x="884.5" y="127.4951">future implementation</text><!--entity Elastic.ProcessHosts.Logstash--><rect fill="#FEFECE" filter="url(#fbqy4dmh0obpg)" height="37.6094" style="stroke: #A80036; stroke-width: 1.5;" width="213" x="224.5" y="103"/><rect fill="#FEFECE" height="5" style="stroke: #A80036; stroke-width: 1.5;" width="10" x="219.5" y="108"/><rect fill="#FEFECE" height="5" style="stroke: #A80036; stroke-width: 1.5;" width="10" x="219.5" y="130.6094"/><text fill="#000000" font-family="sans-serif" font-size="14" lengthAdjust="spacingAndGlyphs" textLength="193" x="234.5" y="127.5332">Elastic.ProcessHosts.Logstash</text><path d="M472.5,109 L472.5,118 L437.582,122 L472.5,126 L472.5,135.3516 A0,0 0 0 0 472.5,135.3516 L617.5,135.3516 A0,0 0 0 0 617.5,135.3516 L617.5,119 L607.5,109 L472.5,109 A0,0 0 0 0 472.5,109 " fill="#FBFB77" filter="url(#fbqy4dmh0obpg)" style="stroke: #A80036; stroke-width: 1.0;"/><path d="M607.5,109 L607.5,119 L617.5,119 L607.5,109 " fill="#FBFB77" style="stroke: #A80036; stroke-width: 1.0;"/><text fill="#000000" font-family="sans-serif" font-size="13" lengthAdjust="spacingAndGlyphs" textLength="124" x="478.5" y="127.4951">future implementation</text><!--link Elastic.ProcessHosts to Elastic.ProcessHosts.Elasticsearch--><path d="M129.134,102.9102 C148.448,80.2531 184.22,43.695 224.5,29 C288.017,5.829 1376.36,10.906 1441.5,29 C1490.81,42.696 1540.14,76.8181 1569.36,99.6978 " fill="none" id="Elastic.ProcessHosts-Elastic.ProcessHosts.Elasticsearch" style="stroke: #A80036; stroke-width: 1.0;"/><polygon fill="#A80036" points="1573.52,102.9882,1568.9584,94.2594,1569.6041,99.8793,1563.9842,100.5249,1573.52,102.9882" style="stroke: #A80036; stroke-width: 1.0;"/><!--link Elastic.ProcessHosts to Elastic.ProcessHosts.Kibana--><path d="M129.134,102.9102 C148.448,80.2531 184.22,43.695 224.5,29 C307.901,-1.426 938.753,2.554 1023.5,29 C1067.49,42.727 1109.77,76.4344 1134.82,99.2667 " fill="none" id="Elastic.ProcessHosts-Elastic.ProcessHosts.Kibana" style="stroke: #A80036; stroke-width: 1.0;"/><polygon fill="#A80036" points="1138.69,102.833,1134.7785,93.7942,1135.0117,99.4462,1129.3597,99.6794,1138.69,102.833" style="stroke: #A80036; stroke-width: 1.0;"/><!--link Elastic.ProcessHosts to Elastic.ProcessHosts.Beats--><path d="M129.134,102.9102 C148.448,80.2531 184.22,43.695 224.5,29 C306.544,-0.931 534.318,2.393 617.5,29 C660.511,42.758 701.443,76.4569 725.641,99.2791 " fill="none" id="Elastic.ProcessHosts-Elastic.ProcessHosts.Beats" style="stroke: #A80036; stroke-width: 1.0;"/><polygon fill="#A80036" points="729.379,102.8438,725.6274,93.7375,725.761,99.3927,720.1057,99.5263,729.379,102.8438" style="stroke: #A80036; stroke-width: 1.0;"/><!--link Elastic.ProcessHosts to Elastic.ProcessHosts.Logstash--><path d="M189.865,122 C199.646,122 209.427,122 219.207,122 " fill="none" id="Elastic.ProcessHosts-Elastic.ProcessHosts.Logstash" style="stroke: #A80036; stroke-width: 1.0;"/><polygon fill="#A80036" points="224.322,122,215.322,118,219.322,122,215.322,126,224.322,122" style="stroke: #A80036; stroke-width: 1.0;"/><!--
@startuml
package "process hosts" {
	[Elastic.ProcessHosts] -> [Elastic.ProcessHosts.Elasticsearch]
	note right
		complete implementation
	end note

	[Elastic.ProcessHosts] -> [Elastic.ProcessHosts.Kibana]
	note right
		partial implementation
	end note

	[Elastic.ProcessHosts] -> [Elastic.ProcessHosts.Beats]
	note right
		future implementation
	end note

	[Elastic.ProcessHosts] -> [Elastic.ProcessHosts.Logstash]
	note right
		future implementation
	end note
}
@enduml

PlantUML version 1.2019.03(Sun Mar 10 22:04:44 AEDT 2019)
(GPL source distribution)
Java Runtime: Java(TM) SE Runtime Environment
JVM: Java HotSpot(TM) 64-Bit Server VM
Java Version: 1.8.0_201-b09
Operating System: Windows 10
OS Version: 10.0
Default Encoding: Cp1252
Language: en
Country: AU
--></g></svg>